<svg width="117" height="16" viewBox="0 0 117 16" fill="none" xmlns="http://www.w3.org/2000/svg">
<path d="M5.19047 15.0329C4.22763 15.0329 3.32344 14.8584 2.58093 14.5365C1.79406 14.1717 1.18173 13.7196 0.713904 13.1073C0.290426 12.4949 0.0286134 11.8526 0 11.11H3.03302C3.10598 11.5764 3.32487 11.9269 3.71831 12.2474C4.11174 12.5393 4.60819 12.7138 5.19047 12.7138C5.77275 12.7138 6.19623 12.6122 6.5167 12.349C6.83717 12.1301 7.01314 11.8096 7.01314 11.4591C7.01314 11.0657 6.79425 10.7738 6.40081 10.5993C6.00738 10.3804 5.39505 10.1758 4.53379 9.95835C3.64391 9.73946 2.93001 9.53487 2.3463 9.27306C1.77832 9.05417 1.31049 8.70508 0.874139 8.23725C0.480705 7.77086 0.261813 7.12849 0.261813 6.34162C0.261813 5.70068 0.436353 5.08692 0.829787 4.54756C1.22322 4.0082 1.76258 3.58472 2.47792 3.26425C3.19182 2.94378 4.00873 2.79785 4.98588 2.79785C6.41512 2.79785 7.52246 3.16267 8.38372 3.87658C9.24355 4.59048 9.70995 5.52471 9.78292 6.73505H6.92444C6.89582 6.26865 6.67693 5.87522 6.31211 5.62628C5.94729 5.33443 5.4952 5.20281 4.91292 5.20281C4.37356 5.20281 3.95008 5.30438 3.65822 5.49466C3.36636 5.71355 3.23474 5.96106 3.23474 6.31157C3.23474 6.70501 3.45364 7.02548 3.84707 7.24437C4.2405 7.46326 4.88287 7.6378 5.71409 7.8567C6.57393 8.07559 7.28926 8.28017 7.82862 8.54199C8.3966 8.76088 8.86442 9.10996 9.25786 9.62071C9.68134 10.0871 9.8988 10.7295 9.8988 11.5163C9.8988 12.2016 9.72426 12.7997 9.33082 13.3834C8.966 13.9227 8.39803 14.3462 7.68269 14.6667C6.96879 14.8555 6.15188 15.0315 5.18904 15.0315L5.19047 15.0329Z" fill="white"/>
<path d="M10.6875 8.85574C10.6875 7.64539 10.935 6.59528 11.4014 5.67679C11.8978 4.74399 12.5388 4.02866 13.37 3.53365C14.1869 3.0372 15.1197 2.77539 16.1255 2.77539C17.0154 2.77539 17.7736 2.94993 18.4446 3.31475C19.1299 3.67957 19.6549 4.13167 20.0484 4.67103V2.94993H23.0814V14.8188H20.0484V13.0691C19.6549 13.637 19.1156 14.1049 18.4446 14.4683C17.7593 14.8331 16.9724 15.0076 16.1255 15.0076C15.1197 15.0076 14.2012 14.7601 13.37 14.2207C12.5531 13.7243 11.8978 12.966 11.4014 12.0333C10.9493 11.1434 10.6875 10.0647 10.6875 8.85431V8.85574ZM20.0641 8.88435C20.0641 8.17045 19.9182 7.52808 19.6406 7.01733C19.3488 6.47796 18.9553 6.08453 18.5032 5.80698C18.0068 5.51512 17.4975 5.3835 16.9281 5.3835C16.3587 5.3835 15.8494 5.52943 15.3973 5.77694C14.9309 6.06879 14.5374 6.46223 14.2599 6.98728C13.968 7.48372 13.8364 8.12466 13.8364 8.85431C13.8364 9.58395 13.9823 10.2106 14.2599 10.7499C14.5374 11.2893 14.9452 11.6827 15.3973 11.9603C15.8937 12.2521 16.403 12.3838 16.9281 12.3838C17.4961 12.3838 18.0068 12.2378 18.5032 11.9903C18.9997 11.6985 19.3631 11.305 19.6406 10.78C19.9182 10.2549 20.0641 9.59825 20.0641 8.88435Z" fill="white"/>
<path d="M31.7565 2.76855C33.1857 2.76855 34.3374 3.23495 35.1829 4.12483C36.0428 5.01471 36.5092 6.26797 36.5092 7.84314V14.8134H33.5048V8.23657C33.5048 7.30378 33.2572 6.55983 32.7908 6.04908C32.3244 5.53833 31.6821 5.26221 30.8666 5.26221C30.0511 5.26221 29.3644 5.50972 28.898 6.04908C28.4316 6.54552 28.1841 7.25943 28.1841 8.23657V14.8134H25.1797V2.94453H28.1841V4.41669C28.5775 3.92024 29.074 3.48389 29.7149 3.20634C30.3272 2.91448 30.9982 2.76855 31.7565 2.76855V2.76855Z" fill="white"/>
<path d="M41.974 5.41079V11.1707C41.974 11.5641 42.0756 11.856 42.2659 12.0605C42.4848 12.2351 42.8052 12.308 43.2716 12.308H44.6708V14.8446H42.7752C40.2386 14.8446 38.9839 13.6343 38.9839 11.1549V5.4394H37.5547V2.93144H38.9839V0L42.0169 0V2.93144H44.6565V5.39505H41.974V5.40936V5.41079Z" fill="white"/>
<path d="M56.9951 8.63243C56.9951 9.05591 56.9665 9.44935 56.9222 9.76982H48.2309C48.3038 10.6296 48.5957 11.3006 49.1207 11.767C49.6601 12.2635 50.3025 12.4809 51.0893 12.4809C52.1981 12.4809 52.985 12.0145 53.4814 11.0517H56.7333C56.3685 12.1891 55.7276 13.1219 54.7647 13.8801C53.8019 14.594 52.5772 14.9889 51.1923 14.9889C50.055 14.9889 49.0048 14.7414 48.115 14.2306C47.2251 13.7199 46.5112 12.9759 46.0004 12.0432C45.4897 11.1104 45.2422 10.0459 45.2422 8.82128C45.2422 7.59663 45.4897 6.50216 46.0004 5.56937C46.5112 4.63657 47.2108 3.92124 48.115 3.42622C49.0192 2.92978 50.0392 2.66797 51.221 2.66797C52.4027 2.66797 53.3641 2.91548 54.254 3.38187C55.1439 3.87832 55.8578 4.56361 56.3242 5.45205C56.7476 6.44351 56.9951 7.44927 56.9951 8.631V8.63243ZM53.8892 7.7726C53.8892 6.98573 53.5973 6.37341 53.0722 5.90558C52.5472 5.43918 51.8619 5.19167 51.075 5.19167C50.2882 5.19167 49.7188 5.41056 49.1794 5.87696C48.6829 6.30044 48.3625 6.95569 48.2466 7.74399H53.8892V7.7726V7.7726Z" fill="white"/>
<path d="M65.9634 6.51376L68.6058 2.8584H65.3067L64.3281 4.22755L65.9634 6.51376V6.51376Z" fill="white"/>
<path d="M64.3125 13.3731L65.2911 14.7423H68.5902L65.9478 11.0869L64.3125 13.3731V13.3731Z" fill="white"/>
<path d="M60.0335 2.86133H56.7344L61.0407 8.8029L56.7344 14.7445H60.0335L64.3398 8.8029L60.0335 2.86133Z" fill="white"/>
<path d="M77.2422 3.32861V2.64502H81.0956V3.32861H79.5689V7.24691H78.7823V3.32861H77.2422V3.32861Z" fill="white"/>
<path d="M83.7018 6.82717C83.5011 6.99395 83.2952 7.11646 83.0862 7.19573C82.8813 7.27501 82.6517 7.31413 82.3985 7.31413C82.1668 7.31413 81.9486 7.26986 81.7427 7.18235C81.5378 7.09484 81.3607 6.97439 81.2115 6.82099C81.0632 6.6676 80.9448 6.48537 80.8573 6.27535C80.7698 6.06534 80.7266 5.8409 80.7266 5.60515C80.7266 5.36939 80.7657 5.14084 80.8439 4.93494C80.9273 4.72492 81.0385 4.54476 81.1785 4.39548C81.3226 4.24208 81.4935 4.12163 81.6902 4.03412C81.8868 3.94661 82.0989 3.90234 82.3254 3.90234C82.5519 3.90234 82.7537 3.94661 82.941 4.03412C83.1335 4.11751 83.2972 4.23384 83.4321 4.38209C83.5721 4.53137 83.6812 4.71051 83.7595 4.92155C83.8377 5.12746 83.8779 5.35292 83.8779 5.59897V5.78325H81.4534C81.4884 6.04166 81.5975 6.25682 81.7808 6.42772C81.9681 6.59862 82.1874 6.68407 82.4366 6.68407C82.5889 6.68407 82.7341 6.6573 82.869 6.6048C83.009 6.54817 83.1243 6.47096 83.2159 6.37419L83.7008 6.8282L83.7018 6.82717ZM82.3192 4.50666C82.101 4.50666 81.9146 4.58079 81.7622 4.73007C81.6088 4.87934 81.511 5.07804 81.4668 5.32821H83.1768C83.1335 5.0873 83.0327 4.88964 82.8751 4.73624C82.7217 4.58285 82.5364 4.50563 82.3182 4.50563L82.3192 4.50666Z" fill="white"/>
<path d="M86.0955 6.65644C86.253 6.65644 86.3992 6.62556 86.5341 6.56482C86.6741 6.50305 86.7914 6.41348 86.8882 6.29509L87.334 6.74189C87.1806 6.91691 86.9912 7.05795 86.7636 7.16296C86.5361 7.26385 86.2983 7.3143 86.0492 7.3143C85.8175 7.3143 85.5993 7.27003 85.3934 7.18252C85.1926 7.09501 85.0176 6.97456 84.8693 6.82116C84.7211 6.66777 84.6027 6.48554 84.5152 6.27552C84.4318 6.06551 84.3906 5.84107 84.3906 5.60532C84.3906 5.36956 84.4318 5.14719 84.5152 4.94129C84.6027 4.73127 84.7201 4.5511 84.8693 4.40182C85.0176 4.24843 85.1926 4.12798 85.3934 4.04047C85.5982 3.95296 85.8175 3.90869 86.0492 3.90869C86.3024 3.90869 86.5433 3.95708 86.7698 4.05385C87.0015 4.15063 87.1981 4.28652 87.3597 4.46154L86.9006 4.94129C86.7873 4.81466 86.6607 4.71788 86.5207 4.65199C86.3807 4.58611 86.2324 4.55316 86.0749 4.55316C85.8124 4.55316 85.59 4.65611 85.4067 4.86201C85.2235 5.0638 85.1319 5.31088 85.1319 5.60532C85.1319 5.89976 85.2235 6.15301 85.4067 6.3548C85.59 6.55658 85.8196 6.65747 86.0945 6.65747L86.0955 6.65644Z" fill="white"/>
<path d="M87.7969 7.24766V2.54693L88.5371 2.42236V4.49373C88.6596 4.30121 88.8079 4.15399 88.9829 4.0531C89.162 3.95221 89.3607 3.90176 89.5789 3.90176C89.9115 3.90176 90.1822 4.01398 90.3912 4.23738C90.6054 4.45667 90.7124 4.73669 90.7124 5.07849V7.24869H89.9722V5.28954C89.9722 5.05275 89.9063 4.86229 89.7756 4.71713C89.6448 4.57197 89.4698 4.49991 89.2516 4.49991C89.1033 4.49991 88.9674 4.53491 88.8449 4.60492C88.7265 4.67081 88.6246 4.76758 88.5371 4.89421V7.24766H87.7969V7.24766Z" fill="white"/>
<path d="M91.5156 7.24927V3.95485H92.2558V4.49431C92.3784 4.30179 92.5266 4.15457 92.7016 4.05368C92.8808 3.95279 93.0794 3.90234 93.2977 3.90234C93.6302 3.90234 93.901 4.01456 94.11 4.23796C94.3241 4.45725 94.4312 4.73727 94.4312 5.07907V7.24927H93.691V5.29012C93.691 5.05333 93.6251 4.86287 93.4943 4.71771C93.3636 4.57255 93.1886 4.50049 92.9703 4.50049C92.8221 4.50049 92.6862 4.53549 92.5637 4.6055C92.4453 4.67139 92.3433 4.76816 92.2558 4.89479V7.24824H91.5156V7.24927Z" fill="white"/>
<path d="M95.0078 5.60222C95.0078 5.36131 95.049 5.13791 95.1324 4.93201C95.2199 4.72199 95.3352 4.54183 95.4793 4.39255C95.6276 4.23915 95.8026 4.1187 96.0033 4.03119C96.2082 3.94368 96.4275 3.89941 96.6591 3.89941C96.8908 3.89941 97.1131 3.94368 97.3149 4.03119C97.5157 4.1187 97.6907 4.23915 97.839 4.39255C97.9872 4.54183 98.1035 4.72096 98.1859 4.93201C98.2693 5.13791 98.3105 5.36131 98.3105 5.60222C98.3105 5.84312 98.2662 6.06858 98.1797 6.27963C98.0963 6.48965 97.981 6.67187 97.8328 6.82527C97.6886 6.97455 97.5136 7.09294 97.3088 7.18045C97.108 7.26796 96.8918 7.31223 96.6602 7.31223C96.4285 7.31223 96.2103 7.26796 96.0044 7.18045C95.8036 7.09294 95.6286 6.97249 95.4804 6.81909C95.3362 6.6657 95.2199 6.48553 95.1334 6.27963C95.05 6.06961 95.0088 5.84312 95.0088 5.60222H95.0078ZM96.6591 6.66776C96.9258 6.66776 97.144 6.56686 97.3149 6.36508C97.4899 6.1633 97.5775 5.91107 97.5775 5.60942C97.5775 5.30778 97.4899 5.04217 97.3149 4.84038C97.1399 4.6386 96.9217 4.53771 96.6591 4.53771C96.3966 4.53771 96.1722 4.6386 95.9972 4.84038C95.8273 5.04217 95.7419 5.29851 95.7419 5.60942C95.7419 5.92033 95.8273 6.1705 95.9972 6.37229C96.1722 6.56995 96.3925 6.66776 96.6591 6.66776Z" fill="white"/>
<path d="M99.709 2.42236V7.24869H98.9688V2.54796L99.709 2.42339V2.42236Z" fill="white"/>
<path d="M100.336 5.60319C100.336 5.36229 100.377 5.13889 100.461 4.93299C100.548 4.72297 100.663 4.5428 100.807 4.39352C100.956 4.24013 101.131 4.11968 101.331 4.03217C101.536 3.94466 101.756 3.90039 101.987 3.90039C102.219 3.90039 102.441 3.94466 102.643 4.03217C102.844 4.11968 103.019 4.24013 103.167 4.39352C103.315 4.5428 103.432 4.72194 103.514 4.93299C103.597 5.13889 103.639 5.36229 103.639 5.60319C103.639 5.8441 103.594 6.06956 103.508 6.28061C103.424 6.49063 103.309 6.67285 103.161 6.82625C103.017 6.97552 102.842 7.09392 102.637 7.18143C102.436 7.26893 102.22 7.3132 101.988 7.3132C101.757 7.3132 101.538 7.26893 101.333 7.18143C101.132 7.09392 100.957 6.97347 100.808 6.82007C100.664 6.66667 100.548 6.48651 100.462 6.28061C100.378 6.07059 100.337 5.8441 100.337 5.60319H100.336ZM101.987 6.66873C102.254 6.66873 102.472 6.56784 102.643 6.36606C102.818 6.16427 102.906 5.91205 102.906 5.6104C102.906 5.30875 102.818 5.04314 102.643 4.84136C102.468 4.63958 102.25 4.53868 101.987 4.53868C101.725 4.53868 101.5 4.63958 101.325 4.84136C101.155 5.04314 101.07 5.29949 101.07 5.6104C101.07 5.92131 101.155 6.17148 101.325 6.37326C101.5 6.57093 101.721 6.66873 101.987 6.66873Z" fill="white"/>
<path d="M105.621 7.26653C105.417 7.26653 105.222 7.22226 105.038 7.13475C104.855 7.04724 104.695 6.92885 104.559 6.77957C104.428 6.63029 104.323 6.45528 104.244 6.25349C104.17 6.04759 104.133 5.82831 104.133 5.59564C104.133 5.36297 104.172 5.14369 104.251 4.93779C104.329 4.73188 104.437 4.55378 104.572 4.40553C104.712 4.25625 104.876 4.13992 105.063 4.05756C105.251 3.97005 105.453 3.92578 105.667 3.92578C105.854 3.92578 106.031 3.9649 106.198 4.04417C106.364 4.1183 106.508 4.22846 106.63 4.37259V3.95152H107.364V7.35713C107.364 7.77819 107.229 8.10249 106.958 8.33001C106.691 8.55753 106.311 8.6718 105.817 8.6718C105.581 8.6718 105.35 8.64298 105.122 8.58636C104.9 8.53385 104.692 8.45664 104.499 8.35575L104.762 7.80393C104.949 7.9007 105.126 7.97071 105.293 8.01395C105.459 8.06234 105.623 8.08602 105.784 8.08602C106.059 8.08602 106.267 8.02219 106.407 7.89556C106.551 7.77305 106.623 7.59288 106.623 7.3561V6.79707C106.51 6.9412 106.364 7.05548 106.185 7.13887C106.01 7.22226 105.822 7.26344 105.621 7.26344V7.26653ZM104.868 5.59667C104.868 5.89523 104.962 6.14437 105.15 6.34615C105.337 6.54793 105.569 6.64883 105.845 6.64883C106.002 6.64883 106.147 6.61794 106.277 6.5572C106.413 6.49543 106.528 6.40586 106.624 6.28747V4.9069C106.528 4.79777 106.412 4.71232 106.277 4.65055C106.141 4.58467 105.997 4.55172 105.845 4.55172C105.565 4.55172 105.331 4.65055 105.144 4.84719C104.961 5.04485 104.869 5.294 104.869 5.59667H104.868Z" fill="white"/>
<path d="M108.858 7.61557L108.996 7.26759L107.758 3.95361H108.583L109.415 6.39972L110.333 3.95361H111.139L109.579 7.78646C109.456 8.10252 109.306 8.32593 109.127 8.45667C108.952 8.58845 108.714 8.65434 108.413 8.65434C108.356 8.65434 108.294 8.65022 108.229 8.64095C108.169 8.63684 108.105 8.62551 108.039 8.60801V7.97075C108.126 7.98001 108.187 7.98619 108.222 7.99031C108.261 7.99442 108.296 7.99648 108.327 7.99648C108.458 7.99648 108.565 7.9656 108.648 7.90486C108.736 7.84309 108.806 7.74734 108.858 7.61557V7.61557Z" fill="white"/>
<path d="M78.8081 14.5854H78.0875L77.2031 11.291H77.9114L78.4879 13.6187L79.1633 11.291H79.7923L80.4677 13.6249L81.038 11.291H81.733L80.8486 14.5854H80.1341L79.4722 12.2649L78.8102 14.5854H78.8081Z" fill="white"/>
<path d="M82.5988 10.6198C82.4721 10.6198 82.363 10.5755 82.2714 10.488C82.1839 10.4005 82.1406 10.2934 82.1406 10.1658C82.1406 10.0381 82.1869 9.93515 82.2786 9.84352C82.3702 9.75189 82.4773 9.70557 82.5998 9.70557C82.7223 9.70557 82.8355 9.75189 82.9272 9.84352C83.0188 9.93515 83.0651 10.0432 83.0651 10.1658C83.0651 10.2883 83.0188 10.4005 82.9272 10.488C82.8397 10.5755 82.7305 10.6198 82.5998 10.6198H82.5988ZM82.9725 11.29V14.5844H82.2323V11.29H82.9725Z" fill="white"/>
<path d="M84.162 13.7162V11.8816H83.5V11.2896H84.162V10.3826L84.9022 10.2251V11.2906H85.8195V11.8826H84.9022V13.5525C84.9022 13.7141 84.9372 13.8304 85.0072 13.9004C85.0772 13.9663 85.1946 13.9993 85.3613 13.9993C85.4355 13.9993 85.5034 13.9951 85.5642 13.9859C85.63 13.9725 85.7104 13.9509 85.8071 13.92V14.5449C85.7114 14.5758 85.6043 14.5974 85.4859 14.6108C85.3727 14.6283 85.2677 14.6365 85.1709 14.6365C84.8435 14.6365 84.5923 14.5603 84.4173 14.4059C84.2474 14.2484 84.162 14.0178 84.162 13.7151V13.7162Z" fill="white"/>
<path d="M86.3047 14.5846V9.88385L87.0449 9.75928V11.8306C87.1674 11.6381 87.3157 11.4909 87.4907 11.39C87.6698 11.2891 87.8685 11.2387 88.0868 11.2387C88.4193 11.2387 88.6901 11.3509 88.899 11.5743C89.1132 11.7936 89.2202 12.0736 89.2202 12.4154V14.5856H88.48V12.6265C88.48 12.3897 88.4141 12.1992 88.2834 12.054C88.1527 11.9099 87.9776 11.8368 87.7594 11.8368C87.6111 11.8368 87.4752 11.8718 87.3527 11.9418C87.2354 12.0077 87.1324 12.1035 87.0449 12.2311V14.5846H86.3047V14.5846Z" fill="white"/>
<path d="M91.4531 14.5809V9.979H93.6944C93.9394 9.979 94.1597 10.0181 94.3563 10.0974C94.5571 10.1715 94.728 10.2776 94.868 10.4135C95.0121 10.5452 95.1213 10.7048 95.1954 10.8932C95.2736 11.0775 95.3138 11.2793 95.3138 11.4986C95.3138 11.7045 95.2747 11.9001 95.1954 12.0833C95.1213 12.2635 95.0121 12.4189 94.868 12.5507C94.728 12.6825 94.5581 12.7875 94.3563 12.8668C94.1597 12.9409 93.9394 12.979 93.6944 12.979H92.5804V14.583H91.4531V14.5809ZM93.4977 10.9117H92.5804V12.0751H93.4915C93.7191 12.0751 93.8889 12.0205 94.0022 11.9104C94.1154 11.7961 94.1721 11.6561 94.1721 11.4893C94.1721 11.3225 94.1154 11.1907 94.0022 11.0816C93.8889 10.9673 93.7201 10.9107 93.4977 10.9107V10.9117Z" fill="white"/>
<path d="M96.8203 11.1905V13.1692C96.8203 13.3576 96.8707 13.511 96.9706 13.6294C97.0756 13.7437 97.2135 13.8003 97.3834 13.8003C97.4966 13.8003 97.5996 13.7787 97.6912 13.7344C97.787 13.686 97.8724 13.6139 97.9465 13.5172V11.1895H99.008V14.5817H97.9465V14.0299C97.8158 14.2275 97.6583 14.3778 97.475 14.4839C97.2959 14.5848 97.0972 14.6352 96.8789 14.6352C96.5516 14.6352 96.2829 14.5281 96.0728 14.313C95.8628 14.0937 95.7578 13.8157 95.7578 13.478V11.1895H96.8192L96.8203 11.1905Z" fill="white"/>
<path d="M99.7578 14.5851V11.1928H100.819V11.9619C100.928 11.6819 101.057 11.4729 101.206 11.337C101.36 11.197 101.536 11.127 101.738 11.127C101.812 11.1311 101.873 11.1403 101.921 11.1537C101.969 11.162 102.026 11.1825 102.091 11.2124V12.1266C102.025 12.0957 101.949 12.072 101.861 12.0545C101.774 12.0329 101.684 12.0216 101.592 12.0216C101.435 12.0216 101.287 12.0607 101.147 12.14C101.011 12.2141 100.902 12.315 100.819 12.4427V14.5861H99.7578V14.5851Z" fill="white"/>
<path d="M102.508 16.0002V11.1934H103.557V11.667C103.666 11.5177 103.81 11.3993 103.989 11.3118C104.168 11.2202 104.359 11.1738 104.56 11.1738C104.76 11.1738 104.959 11.2202 105.143 11.3118C105.327 11.3993 105.484 11.5218 105.615 11.6803C105.751 11.8337 105.858 12.016 105.936 12.226C106.014 12.436 106.054 12.6594 106.054 12.8962C106.054 13.133 106.013 13.3564 105.93 13.5664C105.852 13.7723 105.739 13.9525 105.595 14.1059C105.455 14.2593 105.29 14.3818 105.097 14.4744C104.905 14.5619 104.7 14.6062 104.481 14.6062C104.298 14.6062 104.127 14.5733 103.971 14.5074C103.813 14.4374 103.68 14.3385 103.571 14.2119V16.0002H102.51H102.508ZM104.205 12.0551C104.075 12.0551 103.956 12.0788 103.851 12.1272C103.746 12.1714 103.653 12.2394 103.569 12.331V13.4624C103.653 13.5458 103.748 13.6117 103.858 13.6601C103.967 13.7085 104.083 13.7322 104.204 13.7322C104.436 13.7322 104.629 13.6529 104.781 13.4954C104.934 13.3327 105.011 13.1319 105.011 12.89C105.011 12.6481 104.932 12.4566 104.775 12.298C104.621 12.1354 104.432 12.0551 104.204 12.0551H104.205Z" fill="white"/>
<path d="M106.485 12.8954C106.485 12.6453 106.53 12.4136 106.616 12.1985C106.708 11.9833 106.832 11.8001 106.99 11.6467C107.147 11.4891 107.333 11.3666 107.547 11.2781C107.765 11.1865 107.999 11.1401 108.248 11.1401C108.497 11.1401 108.731 11.1865 108.949 11.2781C109.167 11.3656 109.356 11.4881 109.512 11.6467C109.67 11.8001 109.792 11.9843 109.879 12.1985C109.97 12.4136 110.017 12.6453 110.017 12.8954C110.017 13.1456 109.97 13.3773 109.879 13.5924C109.787 13.8076 109.662 13.9939 109.505 14.1514C109.347 14.3048 109.16 14.4274 108.942 14.52C108.728 14.6075 108.496 14.6518 108.247 14.6518C107.998 14.6518 107.764 14.6075 107.546 14.52C107.332 14.4284 107.146 14.3028 106.989 14.1453C106.831 13.9878 106.707 13.8014 106.615 13.5862C106.528 13.3711 106.484 13.1415 106.484 12.8954H106.485ZM108.248 13.7499C108.462 13.7499 108.637 13.6707 108.772 13.5131C108.912 13.3505 108.982 13.1446 108.982 12.8954C108.982 12.6463 108.912 12.4394 108.772 12.2777C108.636 12.111 108.462 12.0276 108.248 12.0276C108.034 12.0276 107.859 12.111 107.724 12.2777C107.588 12.4404 107.521 12.6463 107.521 12.8954C107.521 13.1446 107.589 13.3515 107.724 13.5131C107.86 13.6707 108.034 13.7499 108.248 13.7499Z" fill="white"/>
<path d="M110.258 14.2353L110.723 13.5249C110.963 13.6526 111.165 13.7421 111.326 13.7946C111.488 13.843 111.65 13.8667 111.811 13.8667C111.96 13.8667 112.078 13.843 112.165 13.7946C112.253 13.7421 112.296 13.6742 112.296 13.5908C112.296 13.5249 112.27 13.4724 112.218 13.4333C112.17 13.3941 112.091 13.3653 111.982 13.3478L111.334 13.2294C111.006 13.1677 110.757 13.0544 110.586 12.8876C110.42 12.7209 110.337 12.5067 110.337 12.2432C110.337 11.8972 110.462 11.6255 110.711 11.4278C110.964 11.2301 111.311 11.1323 111.753 11.1323C111.988 11.1323 112.222 11.1653 112.454 11.2312C112.685 11.297 112.911 11.3938 113.129 11.5204L112.644 12.1979C112.474 12.1011 112.308 12.029 112.146 11.9806C111.988 11.9323 111.831 11.9086 111.674 11.9086C111.548 11.9086 111.447 11.9302 111.373 11.9745C111.303 12.0136 111.268 12.0712 111.268 12.1454C111.268 12.2154 111.291 12.2679 111.34 12.3029C111.392 12.3379 111.484 12.3667 111.615 12.3883L112.251 12.5067C112.582 12.5685 112.837 12.6838 113.011 12.8547C113.186 13.0215 113.27 13.2315 113.266 13.4858C113.266 13.6526 113.229 13.808 113.155 13.9521C113.085 14.0922 112.984 14.2147 112.853 14.3207C112.722 14.4216 112.567 14.5029 112.388 14.5637C112.209 14.6203 112.016 14.6491 111.811 14.6491C111.506 14.6491 111.219 14.6141 110.953 14.5441C110.686 14.4741 110.454 14.3712 110.258 14.2353V14.2353Z" fill="white"/>
<path d="M116.837 14.1026C116.618 14.2951 116.398 14.4362 116.175 14.5237C115.952 14.6071 115.698 14.6482 115.415 14.6482C115.166 14.6482 114.932 14.604 114.714 14.5165C114.5 14.4248 114.312 14.2992 114.151 14.1417C113.989 13.9842 113.862 13.7979 113.771 13.5827C113.679 13.3675 113.633 13.138 113.633 12.8919C113.633 12.6459 113.676 12.4101 113.764 12.1949C113.851 11.9798 113.968 11.7934 114.118 11.6359C114.271 11.4784 114.452 11.3559 114.661 11.2673C114.871 11.1757 115.096 11.1294 115.337 11.1294C115.578 11.1294 115.804 11.1757 116.005 11.2673C116.21 11.3549 116.385 11.4774 116.529 11.6359C116.677 11.7934 116.793 11.9839 116.876 12.2083C116.959 12.4276 117 12.6685 117 12.9321V13.1627H114.674C114.722 13.3511 114.818 13.5045 114.962 13.6229C115.106 13.7413 115.274 13.7999 115.466 13.7999C115.606 13.7999 115.733 13.7763 115.846 13.7279C115.964 13.6795 116.06 13.6095 116.135 13.5178L116.836 14.1026H116.837ZM115.329 11.9592C115.164 11.9592 115.024 12.0117 114.91 12.1167C114.797 12.2217 114.718 12.3689 114.675 12.5573H116.018C115.975 12.373 115.892 12.2289 115.769 12.1239C115.647 12.0148 115.5 11.9592 115.33 11.9592H115.329Z" fill="white"/>
</svg>
